<mxfile host="app.diagrams.net" modified="2021-03-26T06:36:31.673Z" agent="5.0 (Macintosh; Intel Mac OS X 11_2_1) AppleWebKit/537.36 (KHTML, like Gecko) Chrome/89.0.4389.90 Safari/537.36" etag="aeAwKcU7jC0FXn0Rd5CD" version="14.5.1" type="github">
  <diagram id="9jw4lh4yOVy_fBv2kk-0" name="Page-1">
    <mxGraphModel dx="1426" dy="712" grid="1" gridSize="10" guides="1" tooltips="1" connect="1" arrows="1" fold="1" page="1" pageScale="1" pageWidth="827" pageHeight="1169" math="0" shadow="0">
      <root>
        <mxCell id="0" />
        <mxCell id="1" parent="0" />
        <mxCell id="gyhWbZtTj5z5_0JczLYC-1" value="" style="rounded=0;whiteSpace=wrap;html=1;" vertex="1" parent="1">
          <mxGeometry x="120" y="280" width="800" height="50" as="geometry" />
        </mxCell>
        <mxCell id="mXw4cPEqcgSqH6KCQ-YA-8" value="流程" style="rounded=0;whiteSpace=wrap;html=1;fillColor=#f5f5f5;strokeColor=#666666;fontColor=#333333;" parent="1" vertex="1">
          <mxGeometry x="120" y="80" width="800" height="50" as="geometry" />
        </mxCell>
        <mxCell id="mXw4cPEqcgSqH6KCQ-YA-9" value="" style="rounded=0;whiteSpace=wrap;html=1;" parent="1" vertex="1">
          <mxGeometry x="120" y="130" width="800" height="50" as="geometry" />
        </mxCell>
        <mxCell id="mXw4cPEqcgSqH6KCQ-YA-10" value="" style="rounded=0;whiteSpace=wrap;html=1;" parent="1" vertex="1">
          <mxGeometry x="120" y="180" width="800" height="50" as="geometry" />
        </mxCell>
        <mxCell id="mXw4cPEqcgSqH6KCQ-YA-11" value="人员" style="rounded=0;whiteSpace=wrap;html=1;fillColor=#f5f5f5;strokeColor=#666666;fontColor=#333333;" parent="1" vertex="1">
          <mxGeometry x="120" y="80" width="120" height="50" as="geometry" />
        </mxCell>
        <mxCell id="mXw4cPEqcgSqH6KCQ-YA-12" value="产品" style="rounded=0;whiteSpace=wrap;html=1;" parent="1" vertex="1">
          <mxGeometry x="120" y="130" width="120" height="50" as="geometry" />
        </mxCell>
        <mxCell id="mXw4cPEqcgSqH6KCQ-YA-13" value="开发" style="rounded=0;whiteSpace=wrap;html=1;" parent="1" vertex="1">
          <mxGeometry x="120" y="180" width="120" height="50" as="geometry" />
        </mxCell>
        <mxCell id="mXw4cPEqcgSqH6KCQ-YA-14" value="" style="rounded=0;whiteSpace=wrap;html=1;" parent="1" vertex="1">
          <mxGeometry x="120" y="230" width="800" height="50" as="geometry" />
        </mxCell>
        <mxCell id="mXw4cPEqcgSqH6KCQ-YA-15" value="数分" style="rounded=0;whiteSpace=wrap;html=1;" parent="1" vertex="1">
          <mxGeometry x="120" y="230" width="120" height="50" as="geometry" />
        </mxCell>
        <mxCell id="mXw4cPEqcgSqH6KCQ-YA-2" value="产品埋点需求" style="rounded=1;whiteSpace=wrap;html=1;fillColor=#dae8fc;strokeColor=#6c8ebf;" parent="1" vertex="1">
          <mxGeometry x="250" y="140" width="110" height="30" as="geometry" />
        </mxCell>
        <mxCell id="mXw4cPEqcgSqH6KCQ-YA-3" value="编写埋点文档" style="rounded=1;whiteSpace=wrap;html=1;fillColor=#d5e8d4;strokeColor=#82b366;" parent="1" vertex="1">
          <mxGeometry x="361" y="190" width="110" height="30" as="geometry" />
        </mxCell>
        <mxCell id="mXw4cPEqcgSqH6KCQ-YA-6" value="编码" style="rounded=1;whiteSpace=wrap;html=1;fillColor=#d5e8d4;strokeColor=#82b366;" parent="1" vertex="1">
          <mxGeometry x="501" y="190" width="110" height="30" as="geometry" />
        </mxCell>
        <mxCell id="mXw4cPEqcgSqH6KCQ-YA-7" value="校验规则" style="rounded=1;whiteSpace=wrap;html=1;fillColor=#e1d5e7;strokeColor=#9673a6;" parent="1" vertex="1">
          <mxGeometry x="501" y="240" width="110" height="30" as="geometry" />
        </mxCell>
        <mxCell id="mXw4cPEqcgSqH6KCQ-YA-16" style="edgeStyle=orthogonalEdgeStyle;rounded=0;orthogonalLoop=1;jettySize=auto;html=1;exitX=0.5;exitY=1;exitDx=0;exitDy=0;" parent="1" source="mXw4cPEqcgSqH6KCQ-YA-7" target="mXw4cPEqcgSqH6KCQ-YA-7" edge="1">
          <mxGeometry relative="1" as="geometry" />
        </mxCell>
        <mxCell id="mXw4cPEqcgSqH6KCQ-YA-24" value="" style="endArrow=classic;html=1;exitX=1;exitY=0.5;exitDx=0;exitDy=0;entryX=0.5;entryY=0;entryDx=0;entryDy=0;" parent="1" source="mXw4cPEqcgSqH6KCQ-YA-2" target="mXw4cPEqcgSqH6KCQ-YA-3" edge="1">
          <mxGeometry width="50" height="50" relative="1" as="geometry">
            <mxPoint x="360" y="190" as="sourcePoint" />
            <mxPoint x="410" y="140" as="targetPoint" />
            <Array as="points">
              <mxPoint x="416" y="155" />
            </Array>
          </mxGeometry>
        </mxCell>
        <mxCell id="mXw4cPEqcgSqH6KCQ-YA-25" value="" style="endArrow=classic;html=1;exitX=1;exitY=0.5;exitDx=0;exitDy=0;entryX=0;entryY=0.5;entryDx=0;entryDy=0;" parent="1" source="mXw4cPEqcgSqH6KCQ-YA-3" target="mXw4cPEqcgSqH6KCQ-YA-6" edge="1">
          <mxGeometry width="50" height="50" relative="1" as="geometry">
            <mxPoint x="530" y="230" as="sourcePoint" />
            <mxPoint x="580" y="180" as="targetPoint" />
          </mxGeometry>
        </mxCell>
        <mxCell id="mXw4cPEqcgSqH6KCQ-YA-26" value="" style="endArrow=classic;html=1;exitX=1;exitY=0.5;exitDx=0;exitDy=0;entryX=0;entryY=0.5;entryDx=0;entryDy=0;" parent="1" source="mXw4cPEqcgSqH6KCQ-YA-3" target="mXw4cPEqcgSqH6KCQ-YA-7" edge="1">
          <mxGeometry width="50" height="50" relative="1" as="geometry">
            <mxPoint x="491" y="215" as="sourcePoint" />
            <mxPoint x="511" y="215" as="targetPoint" />
            <Array as="points">
              <mxPoint x="471" y="255" />
            </Array>
          </mxGeometry>
        </mxCell>
        <mxCell id="mXw4cPEqcgSqH6KCQ-YA-28" value="自测" style="rounded=1;whiteSpace=wrap;html=1;fillColor=#d5e8d4;strokeColor=#82b366;" parent="1" vertex="1">
          <mxGeometry x="650" y="190" width="110" height="30" as="geometry" />
        </mxCell>
        <mxCell id="mXw4cPEqcgSqH6KCQ-YA-29" value="" style="endArrow=classic;html=1;" parent="1" edge="1">
          <mxGeometry width="50" height="50" relative="1" as="geometry">
            <mxPoint x="610" y="205" as="sourcePoint" />
            <mxPoint x="650" y="205" as="targetPoint" />
          </mxGeometry>
        </mxCell>
        <mxCell id="mXw4cPEqcgSqH6KCQ-YA-33" value="测试" style="rounded=1;whiteSpace=wrap;html=1;fillColor=#e1d5e7;strokeColor=#9673a6;" parent="1" vertex="1">
          <mxGeometry x="790" y="290" width="110" height="30" as="geometry" />
        </mxCell>
        <mxCell id="mXw4cPEqcgSqH6KCQ-YA-35" value="" style="endArrow=classic;html=1;exitX=1;exitY=0.5;exitDx=0;exitDy=0;entryX=0;entryY=0.75;entryDx=0;entryDy=0;" parent="1" source="mXw4cPEqcgSqH6KCQ-YA-7" target="mXw4cPEqcgSqH6KCQ-YA-28" edge="1">
          <mxGeometry width="50" height="50" relative="1" as="geometry">
            <mxPoint x="620" y="215" as="sourcePoint" />
            <mxPoint x="670" y="215" as="targetPoint" />
            <Array as="points">
              <mxPoint x="620" y="220" />
            </Array>
          </mxGeometry>
        </mxCell>
        <mxCell id="mXw4cPEqcgSqH6KCQ-YA-37" value="" style="endArrow=classic;html=1;entryX=0;entryY=0.5;entryDx=0;entryDy=0;exitX=1;exitY=0.5;exitDx=0;exitDy=0;" parent="1" target="mXw4cPEqcgSqH6KCQ-YA-33" edge="1" source="mXw4cPEqcgSqH6KCQ-YA-28">
          <mxGeometry width="50" height="50" relative="1" as="geometry">
            <mxPoint x="770" y="205" as="sourcePoint" />
            <mxPoint x="820" y="204.5" as="targetPoint" />
            <Array as="points">
              <mxPoint x="770" y="220" />
              <mxPoint x="770" y="300" />
            </Array>
          </mxGeometry>
        </mxCell>
        <mxCell id="gyhWbZtTj5z5_0JczLYC-2" value="测试" style="rounded=0;whiteSpace=wrap;html=1;" vertex="1" parent="1">
          <mxGeometry x="120" y="280" width="120" height="50" as="geometry" />
        </mxCell>
      </root>
    </mxGraphModel>
  </diagram>
</mxfile>
